<?xml version="1.0" encoding="UTF-8" standalone="no"?>
<svg
   viewBox="0 0 512 512"
   role="img"
   aria-label="Tacita Labs stitched fish mark"
   version="1.1"
   id="svg6"
   xmlns="http://www.w3.org/2000/svg"
   xmlns:svg="http://www.w3.org/2000/svg">
  <defs
     id="defs6" />
  <g
     transform="translate(0,0) scale(1)"
     id="g6">
    <path
       d="M 48 260 C 82 160 214 111 355 172 C 377 181 396 194 409 208 L 485 137 C 497 126 511 140 505 153 L 464 260 L 505 367 C 511 380 497 394 485 383 L 409 312 C 396 326 377 339 355 348 C 214 409 82 360 48 260 Z"
       fill="#171715"
       id="path1" />
    <path
       id="circle1"
       style="fill:#ffffff"
       d="m 208,218 a 18,18 0 0 1 -18,18 18,18 0 0 1 -18,-18 18,18 0 0 1 18,-18 18,18 0 0 1 18,18 z" />
    <g
       fill="none"
       stroke="#FFFFFF"
       stroke-width="18"
       stroke-linecap="round"
       stroke-linejoin="round"
       id="g5">
      <path
         d="M 66 228 L 118 292"
         id="path2" />
      <path
         d="M 118 228 L 66 292"
         id="path3" />
      <path
         d="M 126 228 L 178 292"
         id="path4" />
      <path
         d="M 178 228 L 126 292"
         id="path5" />
    </g>
  </g>
</svg>
