<?xml version="1.0" encoding="UTF-8" standalone="no"?>
<svg
   viewBox="0 0 900 220"
   role="img"
   aria-label="Tacita Labs stitched fish mark"
   version="1.1"
   id="svg11"
   xmlns="http://www.w3.org/2000/svg"
   xmlns:svg="http://www.w3.org/2000/svg">
  <defs
     id="defs11" />
  <g
     transform="translate(34,24) scale(0.33)"
     id="g11">
    <g
       transform="translate(0,0) scale(1)"
       id="g10">
      <path
         d="M 48 260 C 82 160 214 111 355 172 C 377 181 396 194 409 208 L 485 137 C 497 126 511 140 505 153 L 464 260 L 505 367 C 511 380 497 394 485 383 L 409 312 C 396 326 377 339 355 348 C 214 409 82 360 48 260 Z"
         fill="#171715"
         id="path1" />
      <path
         d="M 238 268 C 274 268 305 289 331 327 C 293 334 256 309 238 268 Z"
         fill="#FFFFFF"
         id="path2" />
      <path
         d="M 222 198 C 197 239 197 292 223 329"
         fill="none"
         stroke="#FFFFFF"
         stroke-width="0"
         stroke-linecap="round"
         stroke-linejoin="round"
         id="path3" />
      <path
         id="circle3"
         style="fill:#ffffff"
         d="m 208,218 a 18,18 0 0 1 -18,18 18,18 0 0 1 -18,-18 18,18 0 0 1 18,-18 18,18 0 0 1 18,18 z" />
      <g
         fill="none"
         stroke="#FFFFFF"
         stroke-width="10"
         stroke-linecap="round"
         stroke-linejoin="round"
         id="g9">
        <path
           d="M 63 236 L 97 284"
           id="path4" />
        <path
           d="M 97 236 L 63 284"
           id="path5" />
        <path
           d="M 98 236 L 132 284"
           id="path6" />
        <path
           d="M 132 236 L 98 284"
           id="path7" />
        <path
           d="M 133 236 L 167 284"
           id="path8" />
        <path
           d="M 167 236 L 133 284"
           id="path9" />
      </g>
    </g>
  </g>
  <path
     d="m 249.684,105.63 v 27.824 c 0,2.738 -0.962,5.106 -3.478,6.216 -1.628,0.74 -4.07,1.11 -4.07,2.22 0,0.74 1.628,1.184 2.442,1.258 0.518,0 4.884,-0.444 8.362,-0.444 3.552,0 8.436,0.444 8.954,0.444 0.814,-0.074 2.368,-0.518 2.368,-1.258 0,-1.11 -2.442,-1.48 -4.07,-2.22 -2.516,-1.11 -3.478,-3.478 -3.478,-6.216 V 105.63 c 0,-0.74 0.148,-2.294 0.888,-2.294 h 11.47 c 1.036,0 1.998,0.962 2.664,2.072 0.814,1.406 1.924,3.33 2.664,3.33 0.888,0 1.036,-0.592 1.036,-1.702 0,-0.814 -0.148,-3.33 -0.148,-5.106 0,-1.628 0.296,-2.516 0.296,-3.182 0,-0.592 -0.444,-1.332 -1.332,-1.332 -0.888,0 -1.258,0.592 -2.146,1.11 -1.332,0.74 -2.516,1.258 -5.18,1.258 H 241.1 c -0.592,0 -1.998,-0.296 -4.366,-0.518 -1.332,-0.814 -1.924,-1.702 -2.664,-1.702 -0.74,0 -1.258,0.888 -1.258,1.85 0,0.74 0.148,2.146 0.148,3.33 0,2.368 -0.37,2.96 -0.37,4.662 0,0.666 0.37,1.702 1.332,1.702 1.036,0 1.554,-2.072 2.368,-3.552 0.74,-1.332 1.258,-2.22 3.182,-2.22 h 9.028 c 0.74,0 1.184,0.814 1.184,2.294 z m 48.73607,17.242 5.18,-14.726 c 0.296,-0.74 0.592,-0.962 0.814,-0.222 l 4.514,13.838 c 0.74,2.368 0.666,2.664 -0.814,2.664 h -9.028 c -1.332,0 -1.11,-0.37 -0.666,-1.554 z m 21.09,19.832 c 2.442,0 5.106,0.444 6.808,0.444 1.406,0 2.146,-0.37 2.146,-1.184 0,-0.74 -0.666,-1.48 -2.96,-2.294 -3.626,-1.332 -4.44,-3.33 -6.586,-9.324 l -9.768,-27.602 c -1.036,-2.886 -1.48,-5.328 -2.738,-5.328 -0.444,0 -1.776,2.072 -3.182,2.22 -0.814,0.074 -0.814,1.036 -2.072,4.218 l -11.322,31.302 c -1.11,3.034 -1.036,3.404 -3.478,4.514 -1.628,0.74 -4.07,1.11 -4.07,2.22 0,0.814 1.036,1.258 2.442,1.258 1.11,0 2.812,-0.444 4.662,-0.444 1.406,0 4.662,0.444 6.068,0.444 1.85,0 2.59,-0.444 2.59,-1.258 0,-0.74 -0.814,-1.554 -2.738,-2.072 -2.146,-0.592 -2.072,-1.776 -1.628,-3.108 l 2.812,-8.066 c 0.296,-0.74 0.814,-0.814 1.184,-0.814 h 12.358 c 0.592,0 0.962,0.222 1.184,0.888 l 2.146,7.03 c 0.37,1.258 0.518,2.664 -2.146,3.922 -1.628,0.74 -3.996,1.11 -3.996,2.22 0,0.814 1.406,1.258 2.368,1.258 2.22,0 5.032,-0.444 9.916,-0.444 z m 46.51601,-44.696 c -14.578,0 -26.788,10.064 -26.788,24.642 0,13.172 12.876,21.534 25.382,21.534 4.144,0 9.324,-0.814 12.284,-1.85 1.85,-0.666 2.22,-1.184 3.404,-3.626 0.666,-1.406 2.96,-6.438 2.96,-7.03 0,-1.332 -0.592,-2.072 -1.184,-2.072 -0.592,0 -1.036,0.148 -1.332,0.592 -3.922,5.55 -5.624,10.73 -13.098,10.73 -11.766,0 -20.128,-10.064 -20.128,-21.386 0,-10.212 7.474,-18.204 17.02,-18.204 5.254,0 12.358,1.924 13.394,5.18 0.962,3.108 1.85,4.662 2.96,4.662 0.814,0 1.332,-0.814 1.332,-2.072 0,-4.07 -0.518,-7.992 -2.22,-8.14 -1.702,-0.148 -8.362,-2.96 -13.986,-2.96 z m 47.626,1.258 c -2.516,0 -5.55,0.37 -8.14,0.37 -2.664,0 -5.328,-0.37 -8.214,-0.37 -1.11,0 -2.59,0.444 -2.59,1.332 0,0.666 0.518,1.036 1.184,1.258 4.218,1.184 6.068,1.258 6.068,5.476 v 26.122 c 0,2.738 -0.962,5.106 -3.478,6.216 -1.628,0.74 -4.07,1.11 -4.07,2.22 0,0.74 1.628,1.184 2.442,1.258 0.518,0 4.884,-0.444 8.362,-0.444 3.552,0 8.436,0.444 8.954,0.444 0.814,-0.074 2.368,-0.518 2.368,-1.258 0,-1.11 -2.442,-1.48 -4.07,-2.22 -2.516,-1.11 -3.478,-3.478 -3.478,-6.216 v -26.122 c 0,-4.218 1.924,-4.292 6.142,-5.476 0.666,-0.222 1.11,-0.592 1.11,-1.258 0,-0.888 -1.48,-1.332 -2.59,-1.332 z m 31.05006,6.364 v 27.824 c 0,2.738 -0.962,5.106 -3.478,6.216 -1.628,0.74 -4.07,1.11 -4.07,2.22 0,0.74 1.628,1.184 2.442,1.258 0.518,0 4.884,-0.444 8.362,-0.444 3.552,0 8.436,0.444 8.954,0.444 0.814,-0.074 2.368,-0.518 2.368,-1.258 0,-1.11 -2.442,-1.48 -4.07,-2.22 -2.516,-1.11 -3.478,-3.478 -3.478,-6.216 V 105.63 c 0,-0.74 0.148,-2.294 0.888,-2.294 h 11.47 c 1.036,0 1.998,0.962 2.664,2.072 0.814,1.406 1.924,3.33 2.664,3.33 0.888,0 1.036,-0.592 1.036,-1.702 0,-0.814 -0.148,-3.33 -0.148,-5.106 0,-1.628 0.296,-2.516 0.296,-3.182 0,-0.592 -0.444,-1.332 -1.332,-1.332 -0.888,0 -1.258,0.592 -2.146,1.11 -1.332,0.74 -2.516,1.258 -5.18,1.258 h -25.826 c -0.592,0 -1.998,-0.296 -4.366,-0.518 -1.332,-0.814 -1.924,-1.702 -2.664,-1.702 -0.74,0 -1.258,0.888 -1.258,1.85 0,0.74 0.148,2.146 0.148,3.33 0,2.368 -0.37,2.96 -0.37,4.662 0,0.666 0.37,1.702 1.332,1.702 1.036,0 1.554,-2.072 2.368,-3.552 0.74,-1.332 1.258,-2.22 3.182,-2.22 h 9.028 c 0.74,0 1.184,0.814 1.184,2.294 z m 48.73606,17.242 5.18,-14.726 c 0.296,-0.74 0.592,-0.962 0.814,-0.222 l 4.514,13.838 c 0.74,2.368 0.666,2.664 -0.814,2.664 h -9.028 c -1.332,0 -1.11,-0.37 -0.666,-1.554 z m 21.09,19.832 c 2.442,0 5.106,0.444 6.808,0.444 1.406,0 2.146,-0.37 2.146,-1.184 0,-0.74 -0.666,-1.48 -2.96,-2.294 -3.626,-1.332 -4.44,-3.33 -6.586,-9.324 l -9.768,-27.602 c -1.036,-2.886 -1.48,-5.328 -2.738,-5.328 -0.444,0 -1.776,2.072 -3.182,2.22 -0.814,0.074 -0.814,1.036 -2.072,4.218 l -11.322,31.302 c -1.11,3.034 -1.036,3.404 -3.478,4.514 -1.628,0.74 -4.07,1.11 -4.07,2.22 0,0.814 1.036,1.258 2.442,1.258 1.11,0 2.812,-0.444 4.662,-0.444 1.406,0 4.662,0.444 6.068,0.444 1.85,0 2.59,-0.444 2.59,-1.258 0,-0.74 -0.814,-1.554 -2.738,-2.072 -2.146,-0.592 -2.072,-1.776 -1.628,-3.108 l 2.812,-8.066 c 0.296,-0.74 0.814,-0.814 1.184,-0.814 h 12.358 c 0.592,0 0.962,0.222 1.184,0.888 l 2.146,7.03 c 0.37,1.258 0.518,2.664 -2.146,3.922 -1.628,0.74 -3.996,1.11 -3.996,2.22 0,0.814 1.406,1.258 2.368,1.258 2.22,0 5.032,-0.444 9.916,-0.444 z m 54.70009,-9.99 v -25.382 c 0,-4.218 1.998,-4.292 6.216,-5.476 0.666,-0.222 1.11,-0.592 1.11,-1.258 0,-0.888 -1.48,-1.332 -2.59,-1.332 -2.516,0 -5.55,0.37 -8.14,0.37 -2.664,0 -5.328,-0.37 -8.214,-0.37 -1.628,0 -2.664,0.444 -2.664,1.332 0,0.666 0.518,1.036 1.184,1.258 4.218,1.184 6.068,1.258 6.068,5.476 v 26.122 c 0,2.738 -0.962,5.106 -3.478,6.216 -1.628,0.74 -4.07,1.11 -4.07,2.22 0,0.74 1.628,1.184 2.442,1.258 0.518,0 4.884,-0.37 8.362,-0.37 7.844,0 21.83,0.37 24.568,0.37 1.258,0 1.48,-0.296 2.072,-1.406 0.592,-0.962 2.442,-6.956 2.442,-8.954 0,-2.072 -0.592,-3.478 -1.332,-3.478 -0.666,0 -1.628,0.592 -1.998,1.406 -2.146,4.514 -3.108,8.954 -8.806,8.954 h -8.066 c -3.552,0 -5.106,-3.182 -5.106,-6.956 z m 52.28795,-9.842 5.18,-14.726 c 0.296,-0.74 0.592,-0.962 0.814,-0.222 l 4.514,13.838 c 0.74,2.368 0.666,2.664 -0.814,2.664 h -9.028 c -1.332,0 -1.11,-0.37 -0.666,-1.554 z m 21.09,19.832 c 2.442,0 5.106,0.444 6.808,0.444 1.406,0 2.146,-0.37 2.146,-1.184 0,-0.74 -0.666,-1.48 -2.96,-2.294 -3.626,-1.332 -4.44,-3.33 -6.586,-9.324 l -9.768,-27.602 c -1.036,-2.886 -1.48,-5.328 -2.738,-5.328 -0.444,0 -1.776,2.072 -3.182,2.22 -0.814,0.074 -0.814,1.036 -2.072,4.218 l -11.322,31.302 c -1.11,3.034 -1.036,3.404 -3.478,4.514 -1.628,0.74 -4.07,1.11 -4.07,2.22 0,0.814 1.036,1.258 2.442,1.258 1.11,0 2.812,-0.444 4.662,-0.444 1.406,0 4.662,0.444 6.068,0.444 1.85,0 2.59,-0.444 2.59,-1.258 0,-0.74 -0.814,-1.554 -2.738,-2.072 -2.146,-0.592 -2.072,-1.776 -1.628,-3.108 l 2.812,-8.066 c 0.296,-0.74 0.814,-0.814 1.184,-0.814 h 12.358 c 0.592,0 0.962,0.222 1.184,0.888 l 2.146,7.03 c 0.37,1.258 0.518,2.664 -2.146,3.922 -1.628,0.74 -3.996,1.11 -3.996,2.22 0,0.814 1.406,1.258 2.368,1.258 2.22,0 5.032,-0.444 9.916,-0.444 z m 32.38203,-7.326 v -11.914 c 0,-1.554 1.11,-1.998 2.22,-1.998 7.474,0 10.36,2.886 10.36,9.102 0,5.032 -3.034,9.546 -8.584,9.546 -0.888,0 -3.996,-1.184 -3.996,-4.736 z m 0,-31.45 c 0,-1.554 0.444,-1.998 3.404,-1.998 4.218,0 7.918,2.812 7.918,8.066 0,4.514 -4.588,8.214 -9.102,8.214 -1.332,0 -2.22,-0.592 -2.22,-2.072 z m -3.552,-4.662 h -8.14 c -1.554,0 -2.59,0.444 -2.59,1.332 0,0.666 0.518,1.036 1.184,1.258 4.218,1.184 6.068,1.258 6.068,5.476 v 26.122 c 0,2.738 -0.962,5.106 -3.478,6.216 -1.628,0.74 -4.07,1.11 -4.07,2.22 0,0.74 1.628,1.184 2.442,1.258 0.518,0 4.884,-0.37 8.362,-0.37 1.406,0 5.476,0.37 7.03,0.37 9.842,0 17.538,-4.366 17.538,-13.468 0,-5.994 -4.44,-9.546 -9.99,-10.36 -0.592,-0.074 -0.666,-0.814 0.148,-1.11 4.218,-1.406 6.734,-5.402 6.734,-10.656 0,-5.624 -6.142,-8.658 -11.914,-8.658 -3.33,0 -7.548,0.37 -9.324,0.37 z m 50.36405,-0.74 c -7.252,0 -13.172,6.29 -13.172,13.616 0,2.812 1.11,4.958 3.256,6.66 l 11.1,9.102 c 1.628,1.332 2.96,2.812 2.96,4.884 0,4.292 -2.442,8.14 -6.438,8.14 -4.292,0 -7.178,-2.146 -7.992,-4.81 -0.666,-2.22 -1.184,-3.33 -2.368,-3.33 -1.48,0 -1.998,2.59 -1.998,4.958 0,2.368 0.666,3.182 3.404,4.44 1.776,0.814 5.476,1.628 7.77,1.628 7.622,0 14.874,-5.18 14.874,-12.654 0,-2.812 -1.332,-5.698 -3.552,-7.548 l -10.434,-8.806 c -2.146,-1.85 -3.774,-2.886 -3.774,-5.328 0,-3.626 2.368,-6.734 6.068,-6.734 1.998,0 4.366,0.296 5.846,2.664 1.554,2.442 2.072,3.404 2.96,3.404 1.11,0 1.48,-1.036 1.48,-1.998 0,-2.59 -0.074,-4.884 -2.516,-6.29 -1.702,-0.962 -5.106,-1.998 -7.474,-1.998 z"
     id="text11"
     style="font-size:74px;font-family:'EB Garamond SC';letter-spacing:7;fill:#171715"
     aria-label="TACITA LABS" />
</svg>
